<svg id="Capa_1" data-name="Capa 1" xmlns="http://www.w3.org/2000/svg" viewBox="0 0 879.07 185.81"><defs><style>.cls-1{fill:#161616;}.cls-2{fill:#f0f0f1;}.cls-3{isolation:isolate;}</style></defs><path class="cls-1" d="M55.44,173.1,12.71,130.37a43.52,43.52,0,0,1,0-61.48L55.45,26.15a43.52,43.52,0,0,1,61-.5L97.08,45a16.14,16.14,0,0,0-22.31.5L32,88.22A16.13,16.13,0,0,0,32,111l42.73,42.73a16.1,16.1,0,0,0,22.29.49h0l22.82-22.82h0L140.33,111a16.13,16.13,0,0,0,0-22.81h0L119.91,67.8l18.31-18.3,1-1,20.42,20.42a43.53,43.53,0,0,1,0,61.47l-20.42,20.42h0l-22.3,22.29A43.52,43.52,0,0,1,55.44,173.1Z"/><path class="cls-2" d="M223.62,130.37,180.88,173.1a43.54,43.54,0,0,1-61,.51l19.34-19.33a16.16,16.16,0,0,0,22.3-.5L204.29,111a16.13,16.13,0,0,0,0-22.81h0l-42.74-42.7A16.12,16.12,0,0,0,139.26,45h0L116.41,67.8h0L96,88.22A16.15,16.15,0,0,0,96,111l20.41,20.42L97.09,150.79,76.67,130.37a43.52,43.52,0,0,1,0-61.48L97.09,48.47h0l22.34-22.34a43.52,43.52,0,0,1,61.45,0l42.74,42.74A43.55,43.55,0,0,1,223.62,130.37Z"/><path class="cls-2" d="M206.94,83.7l.25.44Z"/><path class="cls-2" d="M207.19,84.14l.08.16Z"/><g class="cls-3"><path class="cls-2" d="M305.05,117.68a1.64,1.64,0,0,1,1.62,1.62v6.35a1.64,1.64,0,0,1-1.62,1.62H294.5V158a1.64,1.64,0,0,1-1.62,1.62H285a1.64,1.64,0,0,1-1.62-1.62V127.27H272.87a1.64,1.64,0,0,1-1.62-1.62V119.3a1.64,1.64,0,0,1,1.62-1.62Z"/><path class="cls-2" d="M369.83,117.68a1.64,1.64,0,0,1,1.62,1.62v23.91a18.92,18.92,0,0,1-1.32,7.31,14.29,14.29,0,0,1-3.74,5.33,16.28,16.28,0,0,1-5.79,3.27,23.3,23.3,0,0,1-7.37,1.11,23.6,23.6,0,0,1-7.43-1.11,15.93,15.93,0,0,1-5.75-3.27,14.47,14.47,0,0,1-3.72-5.33,18.92,18.92,0,0,1-1.32-7.31V119.3a1.64,1.64,0,0,1,1.62-1.62h7.85a1.64,1.64,0,0,1,1.62,1.62V143a8.28,8.28,0,0,0,1.77,5.63,8.07,8.07,0,0,0,10.73,0,8.33,8.33,0,0,0,1.76-5.63V119.3a1.64,1.64,0,0,1,1.62-1.62Z"/><path class="cls-2" d="M418.38,117.08a21.43,21.43,0,0,1,7,1.11A20.49,20.49,0,0,1,431,121a14.18,14.18,0,0,1,3.66,3.83,8.08,8.08,0,0,1,1.38,4,1.23,1.23,0,0,1-.39.92,1.17,1.17,0,0,1-.87.39h-7.85a3.21,3.21,0,0,1-1.35-.23,4.48,4.48,0,0,1-1.05-.72l-.57-.6a5.5,5.5,0,0,0-1.11-.87A7.59,7.59,0,0,0,421,127a9.11,9.11,0,0,0-2.63-.33,15.48,15.48,0,0,0-2.19.15,7.89,7.89,0,0,0-1.86.48,3.36,3.36,0,0,0-1.32.93,2.23,2.23,0,0,0-.51,1.49,2.09,2.09,0,0,0,.57,1.5,5.21,5.21,0,0,0,1.92,1.11,26,26,0,0,0,3.57,1q2.2.48,5.51,1.14a30.84,30.84,0,0,1,5.75,1.68,13.86,13.86,0,0,1,4.11,2.54,9.51,9.51,0,0,1,2.45,3.6,13.38,13.38,0,0,1,.81,4.88,10.85,10.85,0,0,1-1.37,5.46,12.47,12.47,0,0,1-3.87,4.1,18.88,18.88,0,0,1-5.87,2.61,28.8,28.8,0,0,1-7.4.9,24.22,24.22,0,0,1-7.44-1.08,20.38,20.38,0,0,1-5.78-2.85,14,14,0,0,1-3.8-4,8.9,8.9,0,0,1-1.44-4.5,1.29,1.29,0,0,1,.39-.93,1.23,1.23,0,0,1,.87-.38h7.85a3.4,3.4,0,0,1,1.32.21,4.16,4.16,0,0,1,1,.62q.24.24.72.78a7.5,7.5,0,0,0,1.29,1.11,8.08,8.08,0,0,0,2,1,9.46,9.46,0,0,0,3,.42A17.43,17.43,0,0,0,424,150a2.57,2.57,0,0,0,2.13-2.49,1.82,1.82,0,0,0-.78-1.49,8,8,0,0,0-2.34-1.11,35.38,35.38,0,0,0-4-1q-2.43-.48-5.73-1.2-6.16-1.32-9-4.41a11.64,11.64,0,0,1-2.84-8.24,11,11,0,0,1,1.16-4.91A12.54,12.54,0,0,1,406,121a17.18,17.18,0,0,1,5.36-2.84A22.21,22.21,0,0,1,418.38,117.08Z"/></g><g class="cls-3"><path class="cls-2" d="M513.78,159.63a3.17,3.17,0,0,1-3.18-2.4l-12.22-37.45-.15-.54a1,1,0,0,1,0-.24,1.33,1.33,0,0,1,1.32-1.32h7.55a2.36,2.36,0,0,1,1.71.51,2.22,2.22,0,0,1,.63,1l8.33,26.37,8.33-26.37a2.22,2.22,0,0,1,.63-1,2.32,2.32,0,0,1,1.7-.51H536a1.33,1.33,0,0,1,1.32,1.32,1,1,0,0,1,0,.24l-.15.54-12.22,37.45a3.17,3.17,0,0,1-3.18,2.4Z"/><path class="cls-2" d="M596.18,150a1.64,1.64,0,0,1,1.62,1.62V158a1.64,1.64,0,0,1-1.62,1.62h-28.4a1.64,1.64,0,0,1-1.62-1.62V119.3a1.64,1.64,0,0,1,1.62-1.62h27.93a1.64,1.64,0,0,1,1.61,1.62v6.35a1.64,1.64,0,0,1-1.61,1.62H577.25v6.47h17.14a1.56,1.56,0,0,1,1.14.48,1.59,1.59,0,0,1,.47,1.14v6.35a1.59,1.59,0,0,1-.47,1.14,1.56,1.56,0,0,1-1.14.48H577.25V150Z"/><path class="cls-2" d="M655.33,159.63a2.42,2.42,0,0,1-1.64-.54,4.16,4.16,0,0,1-.81-.84l-13.73-20.49V158a1.64,1.64,0,0,1-1.61,1.62h-7.86a1.54,1.54,0,0,1-1.13-.48,1.56,1.56,0,0,1-.48-1.14V119.3a1.56,1.56,0,0,1,.48-1.14,1.54,1.54,0,0,1,1.13-.48h6.24a2.45,2.45,0,0,1,1.65.54,4.33,4.33,0,0,1,.8.84l13.73,20.49V119.3a1.64,1.64,0,0,1,1.62-1.62h7.85a1.64,1.64,0,0,1,1.62,1.62V158a1.64,1.64,0,0,1-1.62,1.62Z"/></g><g class="cls-3"><path class="cls-2" d="M725.76,117.68a1.64,1.64,0,0,1,1.62,1.62v6.35a1.64,1.64,0,0,1-1.62,1.62H715.21V158a1.64,1.64,0,0,1-1.62,1.62h-7.85a1.64,1.64,0,0,1-1.62-1.62V127.27H693.58a1.64,1.64,0,0,1-1.62-1.62V119.3a1.64,1.64,0,0,1,1.62-1.62Z"/></g><g class="cls-3"><path class="cls-2" d="M774.12,117.68a2.41,2.41,0,0,1,1.83.66,3.86,3.86,0,0,1,.87,1.32l13.06,37.75a2.73,2.73,0,0,1,.24.9,1.33,1.33,0,0,1-1.32,1.32h-7.55a2.36,2.36,0,0,1-1.71-.51,2.22,2.22,0,0,1-.63-1l-1.67-5h-16l-1.67,5a2.22,2.22,0,0,1-.63,1,2.36,2.36,0,0,1-1.71.51h-7.55a1.33,1.33,0,0,1-1.32-1.32,2.73,2.73,0,0,1,.24-.9l13.06-37.75a3.86,3.86,0,0,1,.87-1.32,2.41,2.41,0,0,1,1.83-.66Zm-9.71,26.19h9.71l-4.86-14.38Z"/></g><g class="cls-3"><path class="cls-2" d="M833.16,117.08a21.43,21.43,0,0,1,7,1.11,20.34,20.34,0,0,1,5.54,2.85,14.18,14.18,0,0,1,3.66,3.83,8.08,8.08,0,0,1,1.38,4,1.23,1.23,0,0,1-.39.92,1.17,1.17,0,0,1-.87.39h-7.85a3.21,3.21,0,0,1-1.35-.23,4.48,4.48,0,0,1-1.05-.72l-.57-.6a5.5,5.5,0,0,0-1.11-.87,7.59,7.59,0,0,0-1.8-.78,9,9,0,0,0-2.63-.33,15.48,15.48,0,0,0-2.19.15,7.89,7.89,0,0,0-1.86.48,3.36,3.36,0,0,0-1.32.93,2.23,2.23,0,0,0-.51,1.49,2.09,2.09,0,0,0,.57,1.5,5.21,5.21,0,0,0,1.92,1.11,26,26,0,0,0,3.57,1q2.2.48,5.51,1.14a30.84,30.84,0,0,1,5.75,1.68,13.86,13.86,0,0,1,4.11,2.54,9.65,9.65,0,0,1,2.46,3.6,13.38,13.38,0,0,1,.8,4.88,10.75,10.75,0,0,1-1.37,5.46,12.47,12.47,0,0,1-3.87,4.1,18.77,18.77,0,0,1-5.87,2.61,28.8,28.8,0,0,1-7.4.9,24.11,24.11,0,0,1-7.43-1.08,20.32,20.32,0,0,1-5.79-2.85,14.13,14.13,0,0,1-3.8-4,8.9,8.9,0,0,1-1.44-4.5,1.29,1.29,0,0,1,.39-.93,1.23,1.23,0,0,1,.87-.38h7.85a3.37,3.37,0,0,1,1.32.21,4,4,0,0,1,1,.62q.24.24.72.78a7.5,7.5,0,0,0,1.29,1.11,8.08,8.08,0,0,0,2,1,9.46,9.46,0,0,0,3,.42,17.43,17.43,0,0,0,5.3-.69,2.57,2.57,0,0,0,2.13-2.49,1.82,1.82,0,0,0-.78-1.49,8,8,0,0,0-2.34-1.11,35.38,35.38,0,0,0-4-1q-2.43-.48-5.73-1.2-6.16-1.32-9-4.41A11.69,11.69,0,0,1,816.2,130a10.85,10.85,0,0,1,1.17-4.91,12.38,12.38,0,0,1,3.38-4.14,17.12,17.12,0,0,1,5.37-2.84A22.11,22.11,0,0,1,833.16,117.08Z"/></g><g class="cls-3"><path class="cls-1" d="M280.7,63.37a20.6,20.6,0,0,0,1.77,6.9,15.32,15.32,0,0,0,3.35,4.66,12.64,12.64,0,0,0,4.41,2.69,14.64,14.64,0,0,0,5,.86,17.52,17.52,0,0,0,8.31-1.82,12.35,12.35,0,0,0,5.38-6.09,5.37,5.37,0,0,1,1.47-2.18,3.09,3.09,0,0,1,1.87-.55h3a2.79,2.79,0,0,1,2,.81,2.22,2.22,0,0,1,.76,1.92,13,13,0,0,1-1.57,5.33,17.71,17.71,0,0,1-4.36,5.37A25.32,25.32,0,0,1,295.2,87.2a25.1,25.1,0,0,1-9.89-1.82,21.48,21.48,0,0,1-7.3-5,22.49,22.49,0,0,1-4.66-7.4,28,28,0,0,1-1.88-9.13c-.07-1.08-.12-2.41-.15-4a28.63,28.63,0,0,1,.15-4.11,32,32,0,0,1,2.08-9.13,23.26,23.26,0,0,1,4.61-7.4,21.2,21.2,0,0,1,7.2-5,24.92,24.92,0,0,1,9.84-1.82,25.32,25.32,0,0,1,16.88,5.93,17.83,17.83,0,0,1,4.36,5.37A13,13,0,0,1,318,49.08a2.22,2.22,0,0,1-.76,1.92,2.75,2.75,0,0,1-2,.82h-3a3.09,3.09,0,0,1-1.87-.56,5.3,5.3,0,0,1-1.47-2.18A12.35,12.35,0,0,0,303.51,43a17.64,17.64,0,0,0-8.31-1.82,15.31,15.31,0,0,0-5,.86,12.63,12.63,0,0,0-4.46,2.69,15.16,15.16,0,0,0-3.35,4.66,19.16,19.16,0,0,0-1.67,6.9A41.93,41.93,0,0,0,280.7,63.37Z"/><path class="cls-1" d="M348.94,54.76A26.61,26.61,0,0,1,351.17,46a24.73,24.73,0,0,1,4.77-7.1,21,21,0,0,1,7-4.77,23.5,23.5,0,0,1,9.18-1.72A25.62,25.62,0,0,1,382,34.22a20.31,20.31,0,0,1,7.35,5.12A22.76,22.76,0,0,1,394,47.46a32.87,32.87,0,0,1,1.62,10.64v2.74a2.77,2.77,0,0,1-2.73,2.74H358v.61c.14,4.59,1.54,8.13,4.21,10.59a14.15,14.15,0,0,0,10,3.7q5.58,0,8.37-1.57a17.62,17.62,0,0,0,4.51-3.5,5.7,5.7,0,0,1,1.42-1.11,4.23,4.23,0,0,1,1.82-.31h3.05a3,3,0,0,1,2,.82,2,2,0,0,1,.71,1.92,10.7,10.7,0,0,1-1.72,4,15.25,15.25,0,0,1-4.11,4.05,24.78,24.78,0,0,1-6.69,3.15,31.37,31.37,0,0,1-9.38,1.26A22.63,22.63,0,0,1,363,85.43a21.72,21.72,0,0,1-7-4.87,24.16,24.16,0,0,1-4.82-7.3,28.63,28.63,0,0,1-2.23-9.18A42.71,42.71,0,0,1,348.94,54.76Zm9,.3h28.5v-.3a13,13,0,0,0-3.91-9.89q-3.9-3.7-10.39-3.7a15.27,15.27,0,0,0-5.47,1,13.88,13.88,0,0,0-4.47,2.74,12.75,12.75,0,0,0-3,4.31A15.08,15.08,0,0,0,358,54.76Z"/><path class="cls-1" d="M455.82,33.46a2.62,2.62,0,0,1,1.92.81,2.66,2.66,0,0,1,.81,1.93v3.25a2.77,2.77,0,0,1-2.73,2.73h-5.89q-11.65,0-11.66,11.66V83.45a2.77,2.77,0,0,1-2.73,2.74h-3.76a2.62,2.62,0,0,1-1.92-.81,2.59,2.59,0,0,1-.81-1.93V36.2a2.77,2.77,0,0,1,2.73-2.74h3.76a2.62,2.62,0,0,1,1.92.81,2.66,2.66,0,0,1,.81,1.93v3.14a12.8,12.8,0,0,1,4.87-4.46,16.67,16.67,0,0,1,7.4-1.42Z"/></g><g class="cls-3"><path class="cls-1" d="M515,33.46a2.63,2.63,0,0,1,1.93.81,2.66,2.66,0,0,1,.81,1.93v3.25A2.77,2.77,0,0,1,515,42.18h-5.88q-11.65,0-11.66,11.66V83.45a2.77,2.77,0,0,1-2.74,2.74H491a2.78,2.78,0,0,1-2.74-2.74V36.2A2.78,2.78,0,0,1,491,33.46h3.75a2.63,2.63,0,0,1,1.93.81,2.66,2.66,0,0,1,.81,1.93v3.14a12.8,12.8,0,0,1,4.87-4.46,16.67,16.67,0,0,1,7.4-1.42Z"/></g><g class="cls-3"><path class="cls-1" d="M543.12,72.91a14.77,14.77,0,0,1,1.63-7.1,15.44,15.44,0,0,1,4.46-5.17,24.08,24.08,0,0,1,6.64-3.45,49.74,49.74,0,0,1,8.06-2l14.3-2.33V51.51c0-3.45-1.14-6-3.4-7.76a13.61,13.61,0,0,0-8.47-2.58q-4.46,0-6.74,1.62a17,17,0,0,0-3.9,3.85,3.31,3.31,0,0,1-1.32,1.12,5.1,5.1,0,0,1-1.93.3h-3a2.83,2.83,0,0,1-2-.81,2.25,2.25,0,0,1-.76-1.92,9.87,9.87,0,0,1,1.78-4.57,15.36,15.36,0,0,1,4.26-4.15,25,25,0,0,1,6.18-3,23.63,23.63,0,0,1,7.45-1.16,26.25,26.25,0,0,1,8.47,1.32,18.73,18.73,0,0,1,6.69,3.85,17.53,17.53,0,0,1,4.36,6.29,22.09,22.09,0,0,1,1.58,8.62V83.45a2.78,2.78,0,0,1-2.74,2.74H581a2.77,2.77,0,0,1-2.74-2.74V79.29a9.3,9.3,0,0,1-2.84,3.4A19.58,19.58,0,0,1,571,85.18a27.47,27.47,0,0,1-5.17,1.52,28,28,0,0,1-5,.5,22.55,22.55,0,0,1-7.25-1.11,17.45,17.45,0,0,1-5.58-3,13.24,13.24,0,0,1-3.55-4.52A12.83,12.83,0,0,1,543.12,72.91Zm18.66,5.57a19.36,19.36,0,0,0,6.69-1.11,15.89,15.89,0,0,0,5.23-3.09A13.4,13.4,0,0,0,577,69.56a15.29,15.29,0,0,0,1.17-6.08V60.94l-12,1.93a28.85,28.85,0,0,0-10.14,3.24q-3.75,2.23-3.75,5.78a5.29,5.29,0,0,0,.51,2.23,6.56,6.56,0,0,0,1.62,2.13,8.19,8.19,0,0,0,2.89,1.63A13.9,13.9,0,0,0,561.78,78.48Z"/><path class="cls-1" d="M632.66,39.34a26.94,26.94,0,0,1,2.13-2.48,13.6,13.6,0,0,1,2.79-2.23,14.62,14.62,0,0,1,3.7-1.57,18,18,0,0,1,5-.61,20.72,20.72,0,0,1,10.24,2.28,16.36,16.36,0,0,1,6.39,6.54,37.75,37.75,0,0,1,2.78-3.45A15.75,15.75,0,0,1,669.11,35a16.71,16.71,0,0,1,4.46-1.87,22.88,22.88,0,0,1,5.83-.66q10.25,0,14.91,6.13T699,55.36V83.45a2.77,2.77,0,0,1-2.73,2.74h-3.76a2.77,2.77,0,0,1-2.73-2.74V56.38q0-7.82-3-11.51t-8.93-3.7a11.27,11.27,0,0,0-8.67,3.55c-2.2,2.36-3.29,6-3.29,11V83.45a2.77,2.77,0,0,1-2.74,2.74h-3.75a2.77,2.77,0,0,1-2.74-2.74V56.38q0-7.82-3-11.51t-8.93-3.7A11.27,11.27,0,0,0,636,44.72c-2.19,2.36-3.29,6-3.29,11V83.45a2.77,2.77,0,0,1-2.74,2.74h-3.75a2.77,2.77,0,0,1-2.74-2.74V36.2a2.66,2.66,0,0,1,.81-1.93,2.63,2.63,0,0,1,1.93-.81h3.75a2.77,2.77,0,0,1,2.74,2.74Z"/><path class="cls-1" d="M756.47,32.45a26.57,26.57,0,0,1,9.73,1.67,22,22,0,0,1,7.3,4.62,21.27,21.27,0,0,1,4.82,7.14,29.82,29.82,0,0,1,2.18,9.18,19.62,19.62,0,0,1,.1,2.18v5.27a16.85,16.85,0,0,1-.1,2.08,32.44,32.44,0,0,1-2.23,9.23,20.85,20.85,0,0,1-4.77,7.1,21.79,21.79,0,0,1-7.3,4.61,29.21,29.21,0,0,1-19.47,0,21.79,21.79,0,0,1-7.3-4.61,21.38,21.38,0,0,1-4.81-7.1,29.12,29.12,0,0,1-2.18-9.23c-.07-.54-.12-1.23-.16-2.08s0-1.72,0-2.63,0-1.79,0-2.64.09-1.57.16-2.18a29.54,29.54,0,0,1,2.18-9.18,21.25,21.25,0,0,1,4.81-7.14,22,22,0,0,1,7.3-4.62A26.62,26.62,0,0,1,756.47,32.45Zm14.8,31.63a35.66,35.66,0,0,0,.2-4.2,38.41,38.41,0,0,0-.2-4.31A21.53,21.53,0,0,0,770,49.89a13.62,13.62,0,0,0-2.83-4.56,13.14,13.14,0,0,0-4.47-3,17.79,17.79,0,0,0-12.37,0,13.1,13.1,0,0,0-4.46,3A13.64,13.64,0,0,0,743,49.89a21.93,21.93,0,0,0-1.32,5.68,41,41,0,0,0-.2,4.31,38,38,0,0,0,.2,4.2A21.84,21.84,0,0,0,743,69.76a13.78,13.78,0,0,0,2.84,4.57,13.08,13.08,0,0,0,4.46,3,17.79,17.79,0,0,0,12.37,0,13.12,13.12,0,0,0,4.47-3A13.76,13.76,0,0,0,770,69.76,21.44,21.44,0,0,0,771.27,64.08Z"/><path class="cls-1" d="M844.58,71.59a4.83,4.83,0,0,0-1.06-3.2,8.52,8.52,0,0,0-3.2-2.18,36.11,36.11,0,0,0-5.42-1.72c-2.2-.54-4.75-1.12-7.66-1.72Q819,61,815.74,57a14.31,14.31,0,0,1-3.3-9.38,14.07,14.07,0,0,1,1.22-5.78A13.85,13.85,0,0,1,817.31,37a17.55,17.55,0,0,1,6.13-3.35,27.88,27.88,0,0,1,8.67-1.21,30.33,30.33,0,0,1,8.67,1.11A22.85,22.85,0,0,1,847,36.4a14.11,14.11,0,0,1,3.85,3.7,7.71,7.71,0,0,1,1.42,3.81,2.25,2.25,0,0,1-.76,1.92,2.81,2.81,0,0,1-2,.81h-3.34a5.25,5.25,0,0,1-1.47-.25,3.18,3.18,0,0,1-1.58-1.17,10,10,0,0,0-3.9-2.89,17.92,17.92,0,0,0-7.15-1.16,14.58,14.58,0,0,0-7.55,1.72,5.66,5.66,0,0,0-2.08,7.86,6.42,6.42,0,0,0,2.64,2,25.1,25.1,0,0,0,4.81,1.57c2,.47,4.48,1,7.45,1.72a33.5,33.5,0,0,1,7.81,2.59,18.52,18.52,0,0,1,5.07,3.55A11.61,11.61,0,0,1,853,66.57a15.49,15.49,0,0,1,.81,5,12.62,12.62,0,0,1-1.47,5.88,15,15,0,0,1-4.21,5,22.36,22.36,0,0,1-6.64,3.45,27.9,27.9,0,0,1-8.87,1.31A29.34,29.34,0,0,1,823.8,86a27,27,0,0,1-6.59-3A15.14,15.14,0,0,1,813,79.14a7.52,7.52,0,0,1-1.57-3.9,2.29,2.29,0,0,1,.71-1.93,2.74,2.74,0,0,1,2-.81h3.65a7.9,7.9,0,0,1,1.42.15,2.51,2.51,0,0,1,1.52,1.17,10.47,10.47,0,0,0,4.47,3.45,19,19,0,0,0,7.4,1.21A19.31,19.31,0,0,0,837,78a15.17,15.17,0,0,0,3.85-1.42,8.84,8.84,0,0,0,2.69-2.18A4.41,4.41,0,0,0,844.58,71.59Z"/></g></svg>